<?xml version="1.0" encoding="UTF-8" standalone="no"?>
<!-- cSpell:ignore evenodd -->
<svg
   xmlns:svg="http://www.w3.org/2000/svg"
   xmlns="http://www.w3.org/2000/svg"
   id="svg944"
   version="1.1"
   width="1024"
   height="575"
   viewBox="-3.21552 -3.21552 202.33103 113.61504">
  <defs
     id="defs941" />
  <path
     id="path671-3"
     d="M 95.46512,105.1677 C 65.63454,104.25834 32.63208,97.90969 11.1396,75.48281 -0.25531,64.10099 -0.92079,44.58984 10.21512,32.78749 30.86953,10.00968 63.55836,3.39521 92.97814,2.06875 c 30.85686,-0.42295 64.58112,5.11426 88.58855,26.3151 12.1566,10.2087 16.75771,29.30899 6.70833,42.5547 -16.24816,21.97734 -44.9523,29.82582 -70.82292,33.16926 -7.32738,0.81707 -14.58673,1.15215 -21.98698,1.05989 z"
     style="fill:#ffffff;fill-opacity:1;fill-rule:evenodd;stroke:none;stroke-width:1.33333325" />
  <path
     id="path627"
     d="M 73.49573,20.84932 62.30042,51.49386 h 6.85547 l 2.12695,-6.29883 h 11.70508 l 2.12695,6.29883 h 6.85352 L 80.77503,20.84932 Z m 15.66406,0 8.89258,30.64454 h 6.08985 l 3.78515,-17.91993 1.10742,-5.92187 h 0.002 l 1.10547,5.92187 3.7871,17.91993 h 6.08594 l 8.89453,-30.64454 h -6.95898 l -4.14063,17.54883 -0.90234,4.88281 -0.9043,-4.7832 -3.54297,-17.64844 h -6.85156 l -3.54297,17.64844 -0.90429,4.7832 -0.90235,-4.88281 -4.14062,-17.54883 z m 48.16211,0 -11.19726,30.64454 h 6.85547 l 2.12695,-6.29883 h 11.70703 l 2.125,6.29883 h 6.85742 L 144.59925,20.84932 Z m -84.54297,0.0176 v 19.36719 c 0,1.53467 -0.0486,2.47452 -0.19531,3.11719 -0.39067,1.832 -1.7111,2.7207 -4.00976,2.7207 -2.44667,0 -4.01403,-1.13595 -4.30469,-3.11328 -0.1,-0.64533 -0.14761,-1.63471 -0.0996,-4.10937 h -5.91406 v 1.23632 c 0,4.99867 0.73341,7.2258 3.08007,9.20313 1.76134,1.48267 4.30086,2.23242 7.38086,2.23242 4.06134,0 7.14368,-1.34452 8.90235,-3.86719 1.22133,-1.68 1.61328,-3.41176 1.61328,-7.12109 V 20.86692 Z m 24.35547,6.99024 4.07032,12.05664 h -8.14063 z m 63.82617,0 4.07032,12.05664 h -8.14063 z"
     style="fill:#bd0f1e;fill-opacity:1;fill-rule:evenodd;stroke:none;stroke-width:1.33333325" />
  <path
     id="path643"
     d="m 97.95081,58.82589 c -9.828,0 -17.82422,7.81139 -17.82422,17.41406 0,9.60133 7.9956,17.41211 17.82227,17.41211 9.828,0 17.82421,-7.81078 17.82421,-17.41211 0,-9.60267 -7.99559,-17.41406 -17.82226,-17.41406 z m -81.6582,1.12109 c -2.47467,0.13333 -0.32393,3.50547 0.58007,4.60547 1.62267,1.992 4.41879,3.1184 7.05078,2.92774 10.264,-0.752 34.21485,-2.50586 34.21485,-2.50586 L 81.7887,63.25167 c 0,0 0.002,-0.002 0.002,-0.002 0.244,-0.284 0.49782,-0.55941 0.75781,-0.83008 0.0733,-0.0773 0.14861,-0.15118 0.22461,-0.22852 0.19334,-0.19733 0.39304,-0.39074 0.59571,-0.58007 0.0813,-0.076 0.16404,-0.1519 0.24804,-0.22657 0.21334,-0.196 0.43163,-0.38498 0.6543,-0.57031 0.068,-0.0587 0.1377,-0.11587 0.20703,-0.17187 0.29334,-0.23734 0.59115,-0.4707 0.89649,-0.69336 l 0.002,-0.002 H 16.55247 c -0.0907,-0.001 -0.17976,-0.004 -0.25976,0 z m 94.23046,0 v 0.002 c 0.30667,0.22267 0.60511,0.45603 0.89844,0.69336 0.0707,0.056 0.1377,0.11321 0.20703,0.17187 0.22267,0.18534 0.44292,0.37432 0.65625,0.57032 0.084,0.0747 0.16538,0.15056 0.24805,0.22656 0.20267,0.18933 0.40104,0.38274 0.5957,0.58008 0.0747,0.0773 0.14933,0.15118 0.22266,0.22851 0.26,0.27067 0.51381,0.54608 0.75781,0.83008 v 0.002 l 23.65039,1.72266 c 0,0 23.95475,1.75386 34.21875,2.50586 2.632,0.19066 5.42678,-0.93574 7.05078,-2.92774 0.904,-1.1 3.05084,-4.47213 0.57618,-4.60547 -0.08,-0.004 -0.16715,-10e-4 -0.25782,0 z m -12.57421,2.95898 c 7.52533,0 13.64648,5.98199 13.64648,13.33399 0,7.35067 -6.12053,13.33203 -13.64453,13.33203 -7.52533,0 -13.64649,-5.98136 -13.64649,-13.33203 0,-7.352 6.12054,-13.33399 13.64454,-13.33399 z m 0.002,3.00391 c -5.82933,0 -10.57227,4.63408 -10.57227,10.33008 0,5.69467 4.74232,10.32813 10.57032,10.32813 5.83066,0 10.57226,-4.63346 10.57226,-10.32813 0,-5.696 -4.74098,-10.33008 -10.57031,-10.33008 z m -18.03711,0.008 -53,6.15234 c -2.67067,0.27333 -1.09199,1.84267 0.27734,3 2.23334,1.888 5.08744,2.97502 8.02344,2.42969 12.20667,-2.26134 39.685,-7.34894 42.98633,-7.96094 v -0.002 c 0.22533,-0.63334 0.48091,-1.25147 0.76758,-1.85547 v -0.002 c 0.14266,-0.30133 0.29517,-0.59729 0.45117,-0.89062 10e-4,-0.001 0.002,-0.003 0.002,-0.004 0.15734,-0.29333 0.32019,-0.58185 0.49219,-0.86718 z m 36.07226,0 c 0.172,0.28533 0.33486,0.57385 0.49219,0.86718 0,0.001 0.003,0.003 0.004,0.004 0.15733,0.29333 0.30655,0.58929 0.44922,0.89062 0,0 0,0.002 0,0.002 0.28666,0.604 0.54286,1.22213 0.76953,1.85547 v 0.002 c 3.30133,0.612 30.77637,5.6996 42.98437,7.96094 2.936,0.54533 5.79144,-0.54169 8.02344,-2.42969 1.37067,-1.15733 2.94801,-2.72667 0.27734,-3 z m -18.0371,4.07421 c 3.52666,0 6.39453,2.80405 6.39453,6.24805 0,3.444 -2.86725,6.24609 -6.39258,6.24609 -3.52533,0 -6.39453,-2.80209 -6.39453,-6.24609 0,-3.44533 2.86858,-6.24805 6.39258,-6.24805 z M 77.26336,73.2538 c -3.676,0.84134 -24.36771,5.57156 -33.73438,7.71289 -4.928,1.30534 -0.0556,3.32938 2.26172,4.10938 2.08,0.64533 4.26516,0.69066 6.28516,0 L 77.04461,76.5331 c -0.001,-0.0933 -0.006,-0.18658 -0.006,-0.28125 0,-0.30933 0.009,-0.61521 0.0234,-0.92188 0.005,-0.112 0.0129,-0.22331 0.0195,-0.33398 0.012,-0.19067 0.0256,-0.37903 0.043,-0.56836 0.012,-0.13333 0.0231,-0.26839 0.0391,-0.40039 0.028,-0.25867 0.0609,-0.51548 0.0996,-0.77148 z m 41.37305,0 v 0.002 c 0.0387,0.256 0.0722,0.51281 0.10156,0.77148 0.0147,0.132 0.0251,0.26706 0.0371,0.40039 0.0173,0.18933 0.031,0.37769 0.043,0.56836 0.008,0.11067 0.0161,0.22198 0.0215,0.33398 0.0133,0.30667 0.0234,0.61255 0.0234,0.92188 0,0.0947 -0.005,0.18792 -0.008,0.28125 l 24.96875,8.54297 c 2.02,0.69066 4.20515,0.64533 6.28515,0 2.31734,-0.78 7.19105,-2.80404 2.26172,-4.10938 -9.36533,-2.14133 -30.05837,-6.87155 -33.73437,-7.71289 z m -41.25586,6.77344 -19.13477,7.48828 c -2.312,1.06 1.17109,2.02561 2.37109,2.34961 2.896,0.76533 5.57386,1.07829 8.36719,-0.48437 l 2.69727,-1.63868 6.79297,-3.99609 c -0.11734,-0.29467 -0.22999,-0.59124 -0.33399,-0.89258 -0.001,-0.007 -0.006,-0.0129 -0.008,-0.0195 -0.10267,-0.29733 -0.19778,-0.59577 -0.28711,-0.89844 -0.004,-0.0107 -0.006,-0.0206 -0.01,-0.0312 -0.088,-0.30133 -0.1708,-0.60349 -0.24414,-0.91015 -0.003,-0.0107 -0.005,-0.02 -0.006,-0.0293 -0.0747,-0.31067 -0.14374,-0.6215 -0.20507,-0.9375 z m 41.13867,0 c -0.0613,0.316 -0.12979,0.62683 -0.20313,0.9375 -0.003,0.009 -0.005,0.0186 -0.008,0.0293 -0.0747,0.30666 -0.15614,0.60882 -0.24414,0.91015 -0.004,0.0107 -0.007,0.0206 -0.01,0.0312 -0.0893,0.30267 -0.18444,0.60111 -0.2871,0.89844 -0.003,0.007 -0.004,0.0129 -0.008,0.0195 -0.10266,0.30134 -0.21532,0.59791 -0.33398,0.89258 l 6.79297,3.99609 2.69531,1.63868 c 2.79467,1.56266 5.47376,1.2497 8.37109,0.48437 1.19867,-0.324 4.68114,-1.28961 2.36914,-2.34961 z m -38.33985,6.96289 -4.95312,3.64648 c -1.80933,1.104 0.47422,2.04321 2.07422,2.28321 2.86933,0.43066 7.8944,0.58757 9.5664,0.6289 -0.30266,-0.18533 -0.60119,-0.37874 -0.89453,-0.58007 -0.0813,-0.056 -0.16085,-0.11197 -0.24218,-0.16797 -0.20534,-0.14534 -0.40609,-0.29198 -0.60743,-0.44531 h -0.002 c -0.10533,-0.0813 -0.21303,-0.16405 -0.31836,-0.24805 -0.19467,-0.15334 -0.38426,-0.31071 -0.57226,-0.47071 -0.0453,-0.0387 -0.0894,-0.0766 -0.13477,-0.11523 -0.17467,-0.15067 -0.34691,-0.30618 -0.51758,-0.46484 -0.0533,-0.048 -0.10487,-0.0972 -0.1582,-0.14649 -0.16533,-0.156 -0.32828,-0.31461 -0.48828,-0.47461 -0.0493,-0.0507 -0.0991,-0.10229 -0.14844,-0.15429 -0.16133,-0.16667 -0.32118,-0.33644 -0.47852,-0.50977 -0.0347,-0.0387 -0.0695,-0.0772 -0.10546,-0.11719 -0.744,-0.83333 -1.41954,-1.72273 -2.01954,-2.66406 z m 35.54297,0 c -0.59866,0.94133 -1.27748,1.83073 -2.02148,2.66406 -0.036,0.04 -0.0681,0.0785 -0.10547,0.11719 -0.156,0.17333 -0.31585,0.3431 -0.47852,0.50977 -0.0493,0.052 -0.0997,0.10363 -0.15039,0.15429 -0.15866,0.16 -0.32232,0.31861 -0.48632,0.47461 -0.0533,0.0493 -0.10549,0.0985 -0.16016,0.14649 -0.16933,0.15866 -0.33901,0.31417 -0.51367,0.46484 -0.0453,0.0387 -0.0914,0.0766 -0.13672,0.11523 -0.188,0.16 -0.3776,0.31737 -0.57227,0.47071 -0.10533,0.084 -0.21231,0.16671 -0.32031,0.24805 -0.2,0.15333 -0.40404,0.29997 -0.60937,0.44531 -0.08,0.056 -0.15891,0.11197 -0.24024,0.16797 -0.29333,0.20133 -0.59186,0.39474 -0.89453,0.58007 1.672,-0.0413 6.69779,-0.19824 9.56445,-0.6289 1.6,-0.24 3.88684,-1.17921 2.07617,-2.28321 z"
     style="fill:#bd0f1e;fill-opacity:1;fill-rule:evenodd;stroke:none;stroke-width:1.33333325" />
  <path
     d="m 164.356,86.50533 c -17.64267,9.65333 -41.22534,14.96933 -66.40667,14.96933 -25.18,0 -48.76267,-5.316 -66.40533,-14.96933 -16.572,-9.06666 -25.7,-20.756 -25.7,-32.912 0,-12.15733 9.128,-23.84666 25.7,-32.91466 17.64266,-9.652 41.22533,-14.96934 66.40533,-14.96934 25.18133,0 48.764,5.31734 66.40667,14.96934 16.572,9.068 25.7,20.75733 25.7,32.91466 0,12.156 -9.128,23.84534 -25.7,32.912 z M 97.95066,0 C 43.85333,0 0,23.99467 0,53.59333 0,83.18933 43.85333,107.184 97.94933,107.184 152.04666,107.184 195.9,83.19067 195.9,53.59333 195.9,23.99467 152.04666,0 97.95066,0"
     style="fill:#b51f24;fill-opacity:1;fill-rule:evenodd;stroke:none;stroke-width:1.33333325"
     id="path655" />
</svg>
